<svg xmlns="http://www.w3.org/2000/svg" width="138" height="175" viewBox="0 0 138 175">
  <g fill="#1A1919" fill-rule="evenodd">
    <path d="M.496 174.597L95.871 174.597 95.871 140.757.496 140.757.496 174.597zM2.496 172.597L93.871 172.597 93.871 142.757 2.496 142.757 2.496 172.597zM84.481 17.559L86.577 29.369 82.35 29.369 84.481 17.559zM81.86 32.129L87.101 32.129 88.114 37.895 91.469 37.895 86.543 13.436 82.489 13.436 77.632 37.895 80.812 37.895 81.86 32.129z"/>
    <polyline points="87.748 72.749 81.598 55.908 78.314 55.908 78.314 80.366 81.354 80.366 81.354 62.966 87.643 80.366 90.788 80.366 90.788 55.908 87.748 55.908 87.748 72.749"/>
    <path d="M87.259,116.517 C87.259,118.684 86.28,119.417 84.464,119.417 L81.842,119.417 L81.842,100.759 L84.464,100.759 C86.28,100.759 87.259,101.493 87.259,103.659 L87.259,116.517 Z M84.603,97.859 L78.558,97.859 L78.558,122.317 L84.603,122.317 C88.307,122.317 90.543,120.745 90.543,117.146 L90.543,103.03 C90.543,99.431 88.307,97.859 84.603,97.859 Z"/>
    <polyline points="47.458 71.841 51.685 71.841 49.589 60.031 47.458 71.841"/>
    <path d="M53.223 80.366L52.21 74.601 46.968 74.601 45.92 80.366 42.741 80.366 47.597 55.908 51.65 55.908 56.577 80.366 53.223 80.366zM55.564 100.759L51.301 100.759 51.301 122.317 48.017 122.317 48.017 100.759 43.754 100.759 43.754 97.859 55.564 97.859 55.564 100.759zM44.453 13.436L54.76 13.436 54.76 16.336 47.738 16.336 47.738 24.023 53.677 24.023 53.677 26.958 47.738 26.958 47.738 34.995 54.865 34.995 54.865 37.895 44.453 37.895 44.453 13.436zM33.595 133.235L67.435 133.235 67.435.204 33.595.204 33.595 133.235zM119.964 143.194L117.274 143.194 117.274 152.069 119.964 152.069C121.781 152.069 122.759 151.335 122.759 149.204L122.759 146.095C122.759 143.928 121.781 143.194 119.964 143.194M119.545 58.808L116.855 58.808 116.855 67.473 119.545 67.473C121.362 67.473 122.34 66.739 122.34 64.573L122.34 61.708C122.34 59.542 121.362 58.808 119.545 58.808"/>
    <path d="M123.109 80.366L119.72 70.338 116.855 70.338 116.855 80.366 113.57 80.366 113.57 55.908 119.685 55.908C123.388 55.908 125.625 57.48 125.625 61.079L125.625 65.167C125.625 67.613 124.576 69.115 122.759 69.849L126.463 80.366 123.109 80.366zM118.374 122.317L121.659 122.317 121.659 97.859 118.374 97.859 118.374 122.317zM126.044 149.833C126.044 153.432 123.807 155.004 120.104 155.004L117.274 155.004 117.274 164.752 113.989 164.752 113.989 140.294 120.104 140.294C123.807 140.294 126.044 141.867 126.044 145.466L126.044 149.833zM114.111 13.436L125.922 13.436 125.922 16.336 121.659 16.336 121.659 37.895 118.375 37.895 118.375 16.336 114.111 16.336 114.111 13.436zM103.247 174.597L137.087 174.597 137.087.204 103.247.204 103.247 174.597zM12.225 152.411L12.225 163.321 13.578 163.321C14.341 163.321 14.8 162.928 14.8 161.837L14.8 153.895C14.8 152.804 14.341 152.411 13.578 152.411L12.225 152.411zM9.825 150.229L13.621 150.229C16.022 150.229 17.2 151.56 17.2 154.004L17.2 161.728C17.2 164.172 16.022 165.503 13.621 165.503L9.825 165.503 9.825 150.229z"/>
    <polyline points="23.548 156.666 26.843 156.666 26.843 158.848 23.548 158.848 23.548 163.321 27.694 163.321 27.694 165.503 21.148 165.503 21.148 150.229 27.694 150.229 27.694 152.411 23.548 152.411 23.548 156.666"/>
    <polyline points="31.598 150.229 33.999 150.229 33.999 163.321 37.948 163.321 37.948 165.503 31.598 165.503 31.598 150.229"/>
    <polygon points="41.417 165.503 43.817 165.503 43.817 150.229 41.417 150.229"/>
    <polyline points="51.606 162.688 53.438 150.229 55.642 150.229 53.286 165.503 49.707 165.503 47.351 150.229 49.773 150.229 51.606 162.688"/>
    <polyline points="61.576 156.666 64.871 156.666 64.871 158.848 61.576 158.848 61.576 163.321 65.722 163.321 65.722 165.503 59.176 165.503 59.176 150.229 65.722 150.229 65.722 152.411 61.576 152.411 61.576 156.666"/>
    <path d="M72.026,152.411 L72.026,157.102 L72.965,157.102 C73.859,157.102 74.405,156.709 74.405,155.487 L74.405,153.982 C74.405,152.891 74.034,152.411 73.183,152.411 L72.026,152.411 Z M74.645,165.503 C74.514,165.11 74.427,164.87 74.427,163.626 L74.427,161.226 C74.427,159.808 73.947,159.284 72.856,159.284 L72.026,159.284 L72.026,165.503 L69.627,165.503 L69.627,150.229 L73.249,150.229 C75.736,150.229 76.805,151.385 76.805,153.742 L76.805,154.942 C76.805,156.513 76.303,157.539 75.234,158.041 C76.434,158.542 76.827,159.699 76.827,161.292 L76.827,163.648 C76.827,164.39 76.849,164.936 77.089,165.503 L74.645,165.503 Z"/>
    <polyline points="82.848 160.44 79.816 150.229 82.325 150.229 84.158 157.189 85.99 150.229 88.282 150.229 85.249 160.44 85.249 165.503 82.848 165.503 82.848 160.44"/>
  </g>
</svg>
