<svg xmlns="http://www.w3.org/2000/svg" width="90" height="114" viewBox="0 0 90 114">
  <g fill="#FFFFFF" fill-rule="evenodd">
    <path d="M.323478261 113.867609L62.5245652 113.867609 62.5245652 91.7980435.323478261 91.7980435.323478261 113.867609zM1.62782609 112.563261L61.2202174 112.563261 61.2202174 93.1023913 1.62782609 93.1023913 1.62782609 112.563261zM55.0963043 11.4515217L56.4632609 19.1536957 53.7065217 19.1536957 55.0963043 11.4515217zM53.3869565 20.9536957L56.805 20.9536957 57.4656522 24.7141304 59.6536957 24.7141304 56.441087 8.7626087 53.7971739 8.7626087 50.6295652 24.7141304 52.7034783 24.7141304 53.3869565 20.9536957z"/>
    <polyline points="57.227 47.445 53.216 36.462 51.074 36.462 51.074 52.413 53.057 52.413 53.057 41.065 57.158 52.413 59.21 52.413 59.21 36.462 57.227 36.462 57.227 47.445"/>
    <path d="M56.9080435,75.9893478 C56.9080435,77.4026087 56.2695652,77.8806522 55.0852174,77.8806522 L53.3752174,77.8806522 L53.3752174,65.7123913 L55.0852174,65.7123913 C56.2695652,65.7123913 56.9080435,66.191087 56.9080435,67.6036957 L56.9080435,75.9893478 Z M55.1758696,63.821087 L51.2334783,63.821087 L51.2334783,79.7719565 L55.1758696,79.7719565 C57.5915217,79.7719565 59.0497826,78.7467391 59.0497826,76.3995652 L59.0497826,67.1934783 C59.0497826,64.8463043 57.5915217,63.821087 55.1758696,63.821087 Z"/>
    <polyline points="30.951 46.853 33.708 46.853 32.341 39.151 30.951 46.853"/>
    <path d="M34.7106522 52.4126087L34.05 48.6528261 30.6313043 48.6528261 29.9478261 52.4126087 27.8745652 52.4126087 31.0415217 36.4617391 33.6847826 36.4617391 36.8980435 52.4126087 34.7106522 52.4126087zM36.2373913 65.7123913L33.4571739 65.7123913 33.4571739 79.7719565 31.3154348 79.7719565 31.3154348 65.7123913 28.5352174 65.7123913 28.5352174 63.821087 36.2373913 63.821087 36.2373913 65.7123913zM28.991087 8.7626087L35.7130435 8.7626087 35.7130435 10.653913 31.1334783 10.653913 31.1334783 15.6671739 35.0067391 15.6671739 35.0067391 17.5813043 31.1334783 17.5813043 31.1334783 22.8228261 35.7815217 22.8228261 35.7815217 24.7141304 28.991087 24.7141304 28.991087 8.7626087zM21.9097826 86.8923913L43.9793478 86.8923913 43.9793478.133043478 21.9097826.133043478 21.9097826 86.8923913zM78.2373913 93.3873913L76.4830435 93.3873913 76.4830435 99.1754348 78.2373913 99.1754348C79.4223913 99.1754348 80.0602174 98.6967391 80.0602174 97.3069565L80.0602174 95.2793478C80.0602174 93.866087 79.4223913 93.3873913 78.2373913 93.3873913M77.9641304 38.3530435L76.2097826 38.3530435 76.2097826 44.0041304 77.9641304 44.0041304C79.1491304 44.0041304 79.7869565 43.5254348 79.7869565 42.1128261L79.7869565 40.2443478C79.7869565 38.8317391 79.1491304 38.3530435 77.9641304 38.3530435"/>
    <path d="M80.2884783 52.4126087L78.0782609 45.8726087 76.2097826 45.8726087 76.2097826 52.4126087 74.0673913 52.4126087 74.0673913 36.4617391 78.0554348 36.4617391C80.4704348 36.4617391 81.9293478 37.4869565 81.9293478 39.8341304L81.9293478 42.5002174C81.9293478 44.0954348 81.2452174 45.075 80.0602174 45.5536957L82.4758696 52.4126087 80.2884783 52.4126087zM77.2004348 79.7719565L79.3428261 79.7719565 79.3428261 63.821087 77.2004348 63.821087 77.2004348 79.7719565zM82.2026087 97.7171739C82.2026087 100.064348 80.7436957 101.089565 78.3286957 101.089565L76.4830435 101.089565 76.4830435 107.446957 74.3406522 107.446957 74.3406522 91.496087 78.3286957 91.496087C80.7436957 91.496087 82.2026087 92.5219565 82.2026087 94.8691304L82.2026087 97.7171739zM74.4202174 8.7626087L82.1230435 8.7626087 82.1230435 10.653913 79.3428261 10.653913 79.3428261 24.7141304 77.201087 24.7141304 77.201087 10.653913 74.4202174 10.653913 74.4202174 8.7626087zM67.335 113.867609L89.4045652 113.867609 89.4045652.133043478 67.335.133043478 67.335 113.867609zM7.97282609 99.3984783L7.97282609 106.513696 8.85521739 106.513696C9.35282609 106.513696 9.65217391 106.257391 9.65217391 105.54587L9.65217391 100.366304C9.65217391 99.6547826 9.35282609 99.3984783 8.85521739 99.3984783L7.97282609 99.3984783zM6.4076087 97.9754348L8.88326087 97.9754348C10.4491304 97.9754348 11.2173913 98.8434783 11.2173913 100.437391L11.2173913 105.474783C11.2173913 107.068696 10.4491304 107.936739 8.88326087 107.936739L6.4076087 107.936739 6.4076087 97.9754348z"/>
    <polyline points="15.357 102.173 17.506 102.173 17.506 103.597 15.357 103.597 15.357 106.514 18.061 106.514 18.061 107.937 13.792 107.937 13.792 97.975 18.061 97.975 18.061 99.398 15.357 99.398 15.357 102.173"/>
    <polyline points="20.607 97.975 22.173 97.975 22.173 106.514 24.749 106.514 24.749 107.937 20.607 107.937 20.607 97.975"/>
    <polygon points="27.011 107.937 28.576 107.937 28.576 97.975 27.011 97.975"/>
    <polyline points="33.656 106.101 34.851 97.975 36.288 97.975 34.752 107.937 32.418 107.937 30.881 97.975 32.461 97.975 33.656 106.101"/>
    <polyline points="40.158 102.173 42.307 102.173 42.307 103.597 40.158 103.597 40.158 106.514 42.862 106.514 42.862 107.937 38.593 107.937 38.593 97.975 42.862 97.975 42.862 99.398 40.158 99.398 40.158 102.173"/>
    <path d="M46.9734783,99.3984783 L46.9734783,102.457826 L47.5858696,102.457826 C48.168913,102.457826 48.525,102.201522 48.525,101.404565 L48.525,100.423043 C48.525,99.7115217 48.2830435,99.3984783 47.7280435,99.3984783 L46.9734783,99.3984783 Z M48.6815217,107.936739 C48.596087,107.680435 48.5393478,107.523913 48.5393478,106.712609 L48.5393478,105.147391 C48.5393478,104.222609 48.2263043,103.88087 47.5147826,103.88087 L46.9734783,103.88087 L46.9734783,107.936739 L45.408913,107.936739 L45.408913,97.9754348 L47.771087,97.9754348 C49.3930435,97.9754348 50.0902174,98.7293478 50.0902174,100.266522 L50.0902174,101.04913 C50.0902174,102.073696 49.7628261,102.742826 49.0656522,103.070217 C49.8482609,103.396957 50.1045652,104.151522 50.1045652,105.190435 L50.1045652,106.726957 C50.1045652,107.21087 50.118913,107.566957 50.2754348,107.936739 L48.6815217,107.936739 Z"/>
    <polyline points="54.031 104.635 52.054 97.975 53.69 97.975 54.886 102.515 56.08 97.975 57.575 97.975 55.597 104.635 55.597 107.937 54.031 107.937 54.031 104.635"/>
  </g>
</svg>
