<svg xmlns="http://www.w3.org/2000/svg" width="105" height="175" viewBox="0 0 105 175">
  <g fill="#131514">
    <path d="M104.402,0.409 L70.555,0.409 L70.555,174.839 L104.402,174.839 L104.401,0.409 L104.402,0.409 Z M81.421,16.544 L81.421,13.644 L93.234,13.644 L93.234,16.544 L88.971,16.544 L88.971,38.107 L85.686,38.107 L85.686,16.544 L81.421,16.544 Z M80.88,80.588 L80.88,56.124 L86.996,56.124 C90.7,56.124 92.937,57.697 92.937,61.297 L92.937,65.385 C92.937,67.832 91.889,69.334 90.072,70.069 L93.776,80.588 L90.421,80.588 L87.031,70.558 L84.165,70.558 L84.165,80.588 L80.88,80.588 Z M81.299,164.993 L81.299,140.53 L87.415,140.53 C91.119,140.53 93.356,142.102 93.356,145.702 L93.356,150.07 C93.356,153.669 91.119,155.242 87.415,155.242 L84.584,155.242 L84.584,164.993 L81.299,164.993 Z M86.856,59.025 C88.673,59.025 89.651,59.759 89.651,61.926 L89.651,64.791 C89.651,66.958 88.673,67.692 86.856,67.692 L84.165,67.692 L84.165,59.025 L86.856,59.025 Z M85.685,122.548 L85.685,98.084 L88.971,98.084 L88.971,122.548 L85.685,122.548 Z M87.275,143.43 L84.584,143.43 L84.584,152.306 L87.275,152.306 C89.092,152.306 90.072,151.573 90.072,149.441 L90.072,146.33 C90.072,144.163 89.092,143.43 87.275,143.43 Z M0.888,133.468 L34.735,133.468 L34.735,0.409 L0.888,0.409 L0.888,133.468 Z M11.748,38.107 L11.748,13.644 L22.057,13.644 L22.057,16.544 L15.033,16.544 L15.033,24.233 L20.974,24.233 L20.974,27.169 L15.033,27.169 L15.033,35.207 L22.162,35.207 L22.162,38.107 L11.748,38.107 Z M10.036,80.588 L14.893,56.124 L18.948,56.124 L23.875,80.588 L20.52,80.588 L19.506,74.822 L14.265,74.822 L13.216,80.588 L10.036,80.588 Z M11.049,100.986 L11.049,98.084 L22.862,98.084 L22.862,100.986 L18.598,100.986 L18.598,122.548 L15.313,122.548 L15.313,100.986 L11.049,100.986 Z M16.885,60.249 L14.753,72.061 L18.982,72.061 L16.885,60.249 Z M53.882,29.581 L51.785,17.768 L49.653,29.581 L53.882,29.581 Z M54.406,32.341 L49.163,32.341 L48.115,38.107 L44.935,38.107 L49.793,13.644 L53.847,13.644 L58.774,38.107 L55.419,38.107 L54.406,32.341 Z"/>
    <polyline points="45.616 80.588 45.616 56.124 48.902 56.124 55.053 72.969 55.053 56.124 58.093 56.124 58.093 80.588 54.948 80.588 48.657 63.184 48.657 80.588 45.616 80.588"/>
    <path d="M51.767,100.985 L49.146,100.985 L49.146,119.648 L51.767,119.648 C53.585,119.648 54.563,118.913 54.563,116.747 L54.563,103.886 C54.563,101.719 53.585,100.985 51.767,100.985 Z M57.848,103.257 L57.848,117.375 C57.848,120.976 55.612,122.548 51.907,122.548 L45.861,122.548 L45.861,98.084 L51.907,98.084 C55.612,98.084 57.848,99.658 57.848,103.257 Z"/>
  </g>
</svg>
