<?xml version="1.0" standalone="no"?>
<!DOCTYPE svg PUBLIC "-//W3C//DTD SVG 20010904//EN"
 "http://www.w3.org/TR/2001/REC-SVG-20010904/DTD/svg10.dtd">
<svg version="1.0" xmlns="http://www.w3.org/2000/svg"
 width="1416.000000pt" height="1416.000000pt" viewBox="0 0 1416.000000 1416.000000"
 preserveAspectRatio="xMidYMid meet">
<metadata>
Created by potrace 1.11, written by Peter Selinger 2001-2013
</metadata>
<g transform="translate(0.000000,1416.000000) scale(0.100000,-0.100000)"
fill="#000000" stroke="none">
<path d="M4550 8175 l0 -3875 990 0 990 0 0 3875 0 3875 -990 0 -990 0 0
-3875z m1230 3020 l0 -85 -205 0 -205 0 0 -225 0 -225 175 0 175 0 0 -85 0
-85 -175 0 -175 0 2 -232 3 -233 208 -3 207 -2 0 -80 0 -80 -300 0 -300 0 0
710 0 710 295 0 295 0 0 -85z m-40 -3080 c75 -374 140 -693 143 -708 l8 -28
-98 3 -97 3 -17 95 c-9 52 -22 128 -29 168 l-12 72 -154 0 c-151 0 -154 0
-159 -22 -8 -36 -55 -300 -55 -310 0 -4 -40 -8 -90 -8 -49 0 -90 4 -90 9 0 12
269 1371 276 1394 5 16 18 17 122 15 l116 -3 136 -680z m90 -1840 l0 -85 -125
0 -125 0 0 -625 0 -625 -95 0 -95 0 0 625 0 625 -120 0 -120 0 0 85 0 85 340
0 340 0 0 -85z"/>
<path d="M5481 8560 c-5 -22 -121 -667 -121 -677 0 -10 30 -13 119 -13 66 0
122 3 124 8 2 4 -22 151 -54 327 -62 342 -66 363 -68 355z"/>
<path d="M8610 6970 l0 -5080 985 0 985 0 0 5080 0 5080 -985 0 -985 0 0
-5080z m1320 4225 l0 -85 -125 0 -125 0 0 -625 0 -625 -95 0 -95 0 0 625 0
625 -125 0 -125 0 0 85 0 85 345 0 345 0 0 -85z m-242 -2406 c81 -17 150 -65
186 -129 l31 -55 0 -220 0 -220 -30 -55 c-21 -38 -44 -64 -77 -85 -26 -16 -47
-35 -47 -40 -1 -6 46 -143 103 -305 l104 -295 -91 -3 c-50 -1 -94 1 -98 5 -4
4 -51 137 -104 296 l-98 287 -83 0 -84 0 0 -295 0 -295 -95 0 -95 0 0 710 0
710 215 0 c117 0 236 -5 263 -11z m-8 -3139 l0 -710 -95 0 -95 0 0 710 0 710
95 0 95 0 0 -710z m105 -1802 c62 -32 98 -70 124 -128 19 -41 21 -65 21 -256
0 -241 -8 -282 -70 -344 -61 -61 -130 -81 -297 -88 l-143 -5 0 -283 0 -284
-90 0 -90 0 0 711 0 711 248 -4 c245 -3 247 -3 297 -30z"/>
<path d="M9400 8386 l0 -256 108 0 c191 0 212 25 212 253 0 227 -18 249 -207
255 l-113 4 0 -256z"/>
<path d="M9420 3461 l0 -261 108 0 c119 0 159 13 196 63 19 26 21 42 21 190 0
177 -6 203 -58 241 -24 18 -46 21 -148 24 l-119 4 0 -261z"/>
<path d="M7396 11268 c-9 -30 -276 -1385 -276 -1401 0 -16 10 -17 92 -15 l93
3 30 165 30 165 151 3 150 3 30 -168 29 -168 98 -3 c78 -2 97 0 97 11 0 8 -63
328 -140 711 -77 382 -140 698 -140 701 0 3 -54 5 -120 5 -88 0 -122 -3 -124
-12z m178 -569 c31 -174 56 -324 56 -333 0 -14 -16 -16 -115 -16 -85 0 -115 3
-115 13 -1 16 113 657 116 654 1 -1 27 -144 58 -318z"/>
<path d="M7157 8803 c-4 -3 -7 -325 -7 -715 l0 -708 95 0 95 0 2 489 3 488
175 -486 176 -486 97 -3 97 -3 -2 713 -3 713 -90 0 -90 0 -5 -473 -5 -473 -89
243 c-49 134 -127 348 -174 476 l-85 232 -92 0 c-50 0 -95 -3 -98 -7z"/>
<path d="M7170 5644 l0 -716 233 4 c271 5 319 16 394 94 72 74 73 81 73 619 0
529 -2 544 -67 616 -76 85 -136 99 -415 99 l-218 0 0 -716z m443 523 c15 -9
35 -32 44 -50 16 -29 18 -70 18 -472 0 -402 -2 -443 -18 -472 -28 -52 -61 -63
-187 -63 l-110 0 0 541 0 541 113 -3 c86 -3 119 -8 140 -22z"/>
<path d="M2620 2875 l0 -985 2780 0 2780 0 0 985 0 985 -2780 0 -2780 0 0
-985z m5440 0 l0 -865 -2660 0 -2660 0 0 865 0 865 2660 0 2660 0 0 -865z"/>
<path d="M3160 2865 l0 -445 148 0 c133 0 152 2 192 23 32 15 52 35 70 67 25
44 25 48 28 320 4 302 -3 360 -46 412 -47 56 -89 68 -249 68 l-143 0 0 -445z
m268 299 c22 -15 22 -17 22 -299 0 -327 3 -315 -86 -315 l-54 0 0 315 0 315
48 0 c27 0 57 -7 70 -16z"/>
<path d="M3820 2865 l0 -445 195 0 195 0 0 65 0 65 -120 0 -120 0 0 125 0 125
95 0 95 0 0 70 0 70 -95 0 -95 0 0 120 0 120 120 0 120 0 0 65 0 65 -195 0
-195 0 0 -445z"/>
<path d="M4430 2865 l0 -445 190 0 190 0 0 65 0 65 -115 0 -115 0 0 380 0 380
-75 0 -75 0 0 -445z"/>
<path d="M5000 2865 l0 -445 75 0 75 0 0 445 0 445 -75 0 -75 0 0 -445z"/>
<path d="M5354 3283 c3 -16 33 -206 66 -423 33 -217 62 -405 65 -417 5 -22 10
-23 109 -23 l104 0 6 28 c3 15 33 203 66 417 33 215 62 402 64 418 l6 27 -68
0 -67 0 -49 -340 c-28 -187 -53 -337 -57 -333 -3 5 -28 158 -55 341 l-48 332
-74 0 -74 0 6 -27z"/>
<path d="M6040 2865 l0 -445 195 0 196 0 -3 63 -3 62 -122 3 -123 3 0 124 0
124 98 3 97 3 0 65 0 65 -97 3 -98 3 0 119 0 120 125 0 125 0 0 65 0 65 -195
0 -195 0 0 -445z"/>
<path d="M6650 2865 l0 -445 70 0 70 0 0 180 0 180 35 0 c49 0 82 -18 95 -53
5 -16 10 -85 10 -153 0 -67 3 -129 6 -138 5 -12 21 -16 73 -16 l66 0 -3 148
c-3 171 -13 220 -53 258 l-29 28 29 30 c39 43 51 85 51 186 0 102 -12 143 -52
187 -40 42 -91 53 -242 53 l-126 0 0 -445z m256 294 c16 -18 19 -37 19 -116 0
-88 -2 -96 -24 -114 -15 -12 -39 -19 -67 -19 l-44 0 0 135 0 135 48 0 c37 0
54 -5 68 -21z"/>
<path d="M7245 3298 c3 -7 43 -142 90 -301 l85 -287 0 -145 0 -145 70 0 70 0
0 143 0 143 85 287 c47 158 88 294 91 302 5 12 -6 15 -65 15 -39 0 -71 -3 -71
-7 -1 -13 -98 -375 -102 -379 -2 -2 -27 83 -55 189 l-50 192 -76 3 c-59 2 -76
0 -72 -10z"/>
</g>
</svg>
